<!DOCTYPE svg PUBLIC "-//W3C//DTD SVG 1.1//EN" "http://www.w3.org/Graphics/SVG/1.1/DTD/svg11.dtd">
<!-- Uploaded to: SVG Repo, www.svgrepo.com, Transformed by: SVG Repo Mixer Tools -->
<svg fill="#2F73FE" height="800px" width="800px" version="1.1" id="Layer_1" xmlns="http://www.w3.org/2000/svg" xmlns:xlink="http://www.w3.org/1999/xlink" viewBox="0 0 392.533 392.533" xml:space="preserve">
<g id="SVGRepo_bgCarrier" stroke-width="0"/>
<g id="SVGRepo_tracerCarrier" stroke-linecap="round" stroke-linejoin="round"/>
<g id="SVGRepo_iconCarrier"> <g> <g> <path d="M243.467,319.289H52.113c-6.077,0.065-10.925,4.913-10.925,10.925s4.848,10.925,10.925,10.925h191.354 c6.012,0,10.925-4.849,10.925-10.925C254.392,324.202,249.543,319.289,243.467,319.289z"/> </g> </g> <g> <g> <path d="M136.735,259.232H52.113c-6.012,0-10.925,4.849-10.925,10.925c0,6.077,4.848,10.925,10.925,10.925h84.622 c6.012,0,10.925-4.849,10.925-10.925C147.661,264.145,142.812,259.232,136.735,259.232z"/> </g> </g> <g> <g> <path d="M145.204,199.24H52.113c-6.012,0-10.925,4.848-10.925,10.925c0,6.012,4.848,10.925,10.925,10.925h93.091 c6.012,0,10.925-4.848,10.925-10.925C156.129,204.154,151.281,199.24,145.204,199.24z"/> </g> </g> <g> <g> <path d="M199.83,139.248H52.113c-6.012,0-10.925,4.849-10.925,10.925c0,6.077,4.848,10.925,10.925,10.925H199.83 c6.012,0,10.925-4.849,10.925-10.925C210.756,144.162,205.907,139.248,199.83,139.248z"/> </g> </g> <g> <g> <path d="M241.01,80.356H113.98c-6.012,0-10.925,4.849-10.925,10.925c0,6.077,4.913,10.925,10.925,10.925h127.03 c6.012,0,10.925-4.849,10.925-10.925C251.935,85.269,247.087,80.356,241.01,80.356z"/> </g> </g> <g> <g> <path d="M381.81,58.699c-6.982-6.982-31.354-20.493-51.846,0l-34.457,34.457V31.547C295.507,14.158,281.349,0,263.96,0H82.368 c-8.275,0-16.162,3.232-22.109,9.18L9.252,60.186C3.37,66.069,0.008,74.279,0.008,82.489v278.497 c0,17.39,14.158,31.547,31.547,31.547h232.533c17.39,0,31.547-14.158,31.547-31.547V196.784l86.174-86.238 C396.097,96.259,396.097,72.986,381.81,58.699z M63.038,37.301v25.794H37.244L63.038,37.301z M273.915,361.05h-0.129 c0,5.301-4.331,9.632-9.632,9.632H31.556c-5.301,0-9.632-4.331-9.632-9.632V85.01h52.17c6.012,0,10.925-4.848,10.925-10.925 V21.851h179.2c5.301,0,9.632,4.331,9.632,9.632v83.394L162.659,226.069c-2.004,2.004-3.168,4.784-3.168,7.758v36.396 c0,6.012,4.848,10.925,10.925,10.925h36.396c2.844,0,5.624-1.164,7.758-3.168l59.345-59.345V361.05z M202.222,259.297h-21.01 v-21.01L323.111,96.388l21.01,21.01L202.222,259.297z M366.424,95.095l-6.982,6.982l-21.01-21.01l6.982-6.982 c5.624-5.624,15.386-5.624,21.01,0C371.919,79.644,371.79,89.794,366.424,95.095z"/> </g> </g> </g>
</svg>